<mxfile host="65bd71144e">
    <diagram id="C5RBs43oDa-KdzZeNtuy" name="Page-1">
        <mxGraphModel dx="1893" dy="2863" grid="1" gridSize="10" guides="1" tooltips="1" connect="1" arrows="1" fold="1" page="1" pageScale="1" pageWidth="827" pageHeight="1169" math="0" shadow="0">
            <root>
                <mxCell id="WIyWlLk6GJQsqaUBKTNV-0"/>
                <mxCell id="WIyWlLk6GJQsqaUBKTNV-1" parent="WIyWlLk6GJQsqaUBKTNV-0"/>
                <mxCell id="ViDhvt9mj5HyhVhJRqnf-46" value="" style="edgeStyle=orthogonalEdgeStyle;rounded=0;orthogonalLoop=1;jettySize=auto;html=1;" parent="WIyWlLk6GJQsqaUBKTNV-1" source="ViDhvt9mj5HyhVhJRqnf-44" target="ViDhvt9mj5HyhVhJRqnf-45" edge="1">
                    <mxGeometry relative="1" as="geometry"/>
                </mxCell>
                <mxCell id="ViDhvt9mj5HyhVhJRqnf-44" value="START&lt;br&gt;porovnavac hodnot" style="strokeWidth=2;html=1;shape=mxgraph.flowchart.start_1;whiteSpace=wrap;" parent="WIyWlLk6GJQsqaUBKTNV-1" vertex="1">
                    <mxGeometry x="70" y="40" width="100" height="60" as="geometry"/>
                </mxCell>
                <mxCell id="ViDhvt9mj5HyhVhJRqnf-51" value="" style="edgeStyle=orthogonalEdgeStyle;rounded=0;orthogonalLoop=1;jettySize=auto;html=1;" parent="WIyWlLk6GJQsqaUBKTNV-1" source="ViDhvt9mj5HyhVhJRqnf-45" target="ViDhvt9mj5HyhVhJRqnf-47" edge="1">
                    <mxGeometry relative="1" as="geometry"/>
                </mxCell>
                <mxCell id="ViDhvt9mj5HyhVhJRqnf-45" value="app introduction" style="strokeWidth=2;html=1;shape=mxgraph.flowchart.display;whiteSpace=wrap;" parent="WIyWlLk6GJQsqaUBKTNV-1" vertex="1">
                    <mxGeometry x="70" y="150" width="100" height="60" as="geometry"/>
                </mxCell>
                <mxCell id="ViDhvt9mj5HyhVhJRqnf-52" value="" style="edgeStyle=orthogonalEdgeStyle;rounded=0;orthogonalLoop=1;jettySize=auto;html=1;" parent="WIyWlLk6GJQsqaUBKTNV-1" source="ViDhvt9mj5HyhVhJRqnf-47" target="ViDhvt9mj5HyhVhJRqnf-48" edge="1">
                    <mxGeometry relative="1" as="geometry"/>
                </mxCell>
                <mxCell id="ViDhvt9mj5HyhVhJRqnf-47" value="x E Z&lt;br&gt;y E Z" style="rounded=1;whiteSpace=wrap;html=1;absoluteArcSize=1;arcSize=14;strokeWidth=2;" parent="WIyWlLk6GJQsqaUBKTNV-1" vertex="1">
                    <mxGeometry x="70" y="260" width="100" height="100" as="geometry"/>
                </mxCell>
                <mxCell id="ViDhvt9mj5HyhVhJRqnf-53" value="" style="edgeStyle=orthogonalEdgeStyle;rounded=0;orthogonalLoop=1;jettySize=auto;html=1;" parent="WIyWlLk6GJQsqaUBKTNV-1" source="ViDhvt9mj5HyhVhJRqnf-48" target="ViDhvt9mj5HyhVhJRqnf-49" edge="1">
                    <mxGeometry relative="1" as="geometry"/>
                </mxCell>
                <mxCell id="ViDhvt9mj5HyhVhJRqnf-48" value="input first whole number from 0 to 100" style="strokeWidth=2;html=1;shape=mxgraph.flowchart.display;whiteSpace=wrap;" parent="WIyWlLk6GJQsqaUBKTNV-1" vertex="1">
                    <mxGeometry x="70" y="400" width="100" height="60" as="geometry"/>
                </mxCell>
                <mxCell id="ViDhvt9mj5HyhVhJRqnf-54" value="" style="edgeStyle=orthogonalEdgeStyle;rounded=0;orthogonalLoop=1;jettySize=auto;html=1;" parent="WIyWlLk6GJQsqaUBKTNV-1" source="ViDhvt9mj5HyhVhJRqnf-49" target="ViDhvt9mj5HyhVhJRqnf-50" edge="1">
                    <mxGeometry relative="1" as="geometry"/>
                </mxCell>
                <mxCell id="ViDhvt9mj5HyhVhJRqnf-49" value="x" style="shape=parallelogram;html=1;strokeWidth=2;perimeter=parallelogramPerimeter;whiteSpace=wrap;rounded=1;arcSize=12;size=0.23;" parent="WIyWlLk6GJQsqaUBKTNV-1" vertex="1">
                    <mxGeometry x="70" y="490" width="100" height="60" as="geometry"/>
                </mxCell>
                <mxCell id="ViDhvt9mj5HyhVhJRqnf-57" style="edgeStyle=orthogonalEdgeStyle;rounded=0;orthogonalLoop=1;jettySize=auto;html=1;entryX=0.5;entryY=1;entryDx=0;entryDy=0;entryPerimeter=0;" parent="WIyWlLk6GJQsqaUBKTNV-1" source="ViDhvt9mj5HyhVhJRqnf-50" target="ViDhvt9mj5HyhVhJRqnf-55" edge="1">
                    <mxGeometry relative="1" as="geometry"/>
                </mxCell>
                <mxCell id="ViDhvt9mj5HyhVhJRqnf-60" value="False" style="edgeLabel;html=1;align=center;verticalAlign=middle;resizable=0;points=[];" parent="ViDhvt9mj5HyhVhJRqnf-57" vertex="1" connectable="0">
                    <mxGeometry x="-0.264" y="2" relative="1" as="geometry">
                        <mxPoint as="offset"/>
                    </mxGeometry>
                </mxCell>
                <mxCell id="ViDhvt9mj5HyhVhJRqnf-59" value="" style="edgeStyle=orthogonalEdgeStyle;rounded=0;orthogonalLoop=1;jettySize=auto;html=1;" parent="WIyWlLk6GJQsqaUBKTNV-1" source="ViDhvt9mj5HyhVhJRqnf-50" target="ViDhvt9mj5HyhVhJRqnf-58" edge="1">
                    <mxGeometry relative="1" as="geometry"/>
                </mxCell>
                <mxCell id="ViDhvt9mj5HyhVhJRqnf-61" value="True" style="edgeLabel;html=1;align=center;verticalAlign=middle;resizable=0;points=[];" parent="ViDhvt9mj5HyhVhJRqnf-59" vertex="1" connectable="0">
                    <mxGeometry x="-0.272" y="1" relative="1" as="geometry">
                        <mxPoint as="offset"/>
                    </mxGeometry>
                </mxCell>
                <mxCell id="ViDhvt9mj5HyhVhJRqnf-50" value="x == n; n E Z AND n &amp;gt;= 0 AND n &amp;lt;= 100&amp;nbsp;&amp;nbsp;" style="strokeWidth=2;html=1;shape=mxgraph.flowchart.decision;whiteSpace=wrap;" parent="WIyWlLk6GJQsqaUBKTNV-1" vertex="1">
                    <mxGeometry x="70" y="600" width="100" height="100" as="geometry"/>
                </mxCell>
                <mxCell id="ViDhvt9mj5HyhVhJRqnf-56" style="edgeStyle=orthogonalEdgeStyle;rounded=0;orthogonalLoop=1;jettySize=auto;html=1;" parent="WIyWlLk6GJQsqaUBKTNV-1" source="ViDhvt9mj5HyhVhJRqnf-55" edge="1">
                    <mxGeometry relative="1" as="geometry">
                        <mxPoint x="120" y="380" as="targetPoint"/>
                        <Array as="points">
                            <mxPoint x="280" y="380"/>
                            <mxPoint x="120" y="380"/>
                        </Array>
                    </mxGeometry>
                </mxCell>
                <mxCell id="ViDhvt9mj5HyhVhJRqnf-55" value="inputError" style="strokeWidth=2;html=1;shape=mxgraph.flowchart.display;whiteSpace=wrap;" parent="WIyWlLk6GJQsqaUBKTNV-1" vertex="1">
                    <mxGeometry x="230" y="500" width="100" height="60" as="geometry"/>
                </mxCell>
                <mxCell id="ViDhvt9mj5HyhVhJRqnf-63" value="" style="edgeStyle=orthogonalEdgeStyle;rounded=0;orthogonalLoop=1;jettySize=auto;html=1;" parent="WIyWlLk6GJQsqaUBKTNV-1" source="ViDhvt9mj5HyhVhJRqnf-58" target="ViDhvt9mj5HyhVhJRqnf-62" edge="1">
                    <mxGeometry relative="1" as="geometry"/>
                </mxCell>
                <mxCell id="ViDhvt9mj5HyhVhJRqnf-58" value="Your input x" style="strokeWidth=2;html=1;shape=mxgraph.flowchart.display;whiteSpace=wrap;" parent="WIyWlLk6GJQsqaUBKTNV-1" vertex="1">
                    <mxGeometry x="70" y="760" width="100" height="60" as="geometry"/>
                </mxCell>
                <mxCell id="ViDhvt9mj5HyhVhJRqnf-65" value="" style="edgeStyle=orthogonalEdgeStyle;rounded=0;orthogonalLoop=1;jettySize=auto;html=1;" parent="WIyWlLk6GJQsqaUBKTNV-1" source="ViDhvt9mj5HyhVhJRqnf-62" target="ViDhvt9mj5HyhVhJRqnf-64" edge="1">
                    <mxGeometry relative="1" as="geometry"/>
                </mxCell>
                <mxCell id="ViDhvt9mj5HyhVhJRqnf-62" value="MENU:&lt;br&gt;continue&lt;br&gt;edit&lt;br&gt;quit" style="strokeWidth=2;html=1;shape=mxgraph.flowchart.display;whiteSpace=wrap;" parent="WIyWlLk6GJQsqaUBKTNV-1" vertex="1">
                    <mxGeometry x="70" y="870" width="100" height="60" as="geometry"/>
                </mxCell>
                <mxCell id="ViDhvt9mj5HyhVhJRqnf-67" value="" style="edgeStyle=orthogonalEdgeStyle;rounded=0;orthogonalLoop=1;jettySize=auto;html=1;" parent="WIyWlLk6GJQsqaUBKTNV-1" source="ViDhvt9mj5HyhVhJRqnf-64" target="ViDhvt9mj5HyhVhJRqnf-66" edge="1">
                    <mxGeometry relative="1" as="geometry"/>
                </mxCell>
                <mxCell id="ViDhvt9mj5HyhVhJRqnf-64" value="option" style="shape=parallelogram;html=1;strokeWidth=2;perimeter=parallelogramPerimeter;whiteSpace=wrap;rounded=1;arcSize=12;size=0.23;" parent="WIyWlLk6GJQsqaUBKTNV-1" vertex="1">
                    <mxGeometry x="70" y="970" width="100" height="60" as="geometry"/>
                </mxCell>
                <mxCell id="ViDhvt9mj5HyhVhJRqnf-68" style="edgeStyle=orthogonalEdgeStyle;rounded=0;orthogonalLoop=1;jettySize=auto;html=1;exitX=0;exitY=0.5;exitDx=0;exitDy=0;exitPerimeter=0;" parent="WIyWlLk6GJQsqaUBKTNV-1" source="ViDhvt9mj5HyhVhJRqnf-66" edge="1">
                    <mxGeometry relative="1" as="geometry">
                        <mxPoint x="120" y="380" as="targetPoint"/>
                        <Array as="points">
                            <mxPoint x="20" y="1119"/>
                            <mxPoint x="20" y="380"/>
                        </Array>
                    </mxGeometry>
                </mxCell>
                <mxCell id="ViDhvt9mj5HyhVhJRqnf-73" value="True" style="edgeLabel;html=1;align=center;verticalAlign=middle;resizable=0;points=[];" parent="ViDhvt9mj5HyhVhJRqnf-68" vertex="1" connectable="0">
                    <mxGeometry x="-0.68" relative="1" as="geometry">
                        <mxPoint as="offset"/>
                    </mxGeometry>
                </mxCell>
                <object label="" id="ViDhvt9mj5HyhVhJRqnf-70">
                    <mxCell style="edgeStyle=orthogonalEdgeStyle;rounded=0;orthogonalLoop=1;jettySize=auto;html=1;" parent="WIyWlLk6GJQsqaUBKTNV-1" source="ViDhvt9mj5HyhVhJRqnf-66" target="ViDhvt9mj5HyhVhJRqnf-69" edge="1">
                        <mxGeometry relative="1" as="geometry">
                            <Array as="points">
                                <mxPoint x="120" y="1190"/>
                                <mxPoint x="120" y="1190"/>
                            </Array>
                        </mxGeometry>
                    </mxCell>
                </object>
                <mxCell id="ViDhvt9mj5HyhVhJRqnf-74" value="False" style="edgeLabel;html=1;align=center;verticalAlign=middle;resizable=0;points=[];" parent="ViDhvt9mj5HyhVhJRqnf-70" vertex="1" connectable="0">
                    <mxGeometry x="-0.2958" y="-4" relative="1" as="geometry">
                        <mxPoint as="offset"/>
                    </mxGeometry>
                </mxCell>
                <mxCell id="ViDhvt9mj5HyhVhJRqnf-66" value="option == edit" style="strokeWidth=2;html=1;shape=mxgraph.flowchart.decision;whiteSpace=wrap;" parent="WIyWlLk6GJQsqaUBKTNV-1" vertex="1">
                    <mxGeometry x="70" y="1069" width="100" height="100" as="geometry"/>
                </mxCell>
                <mxCell id="ViDhvt9mj5HyhVhJRqnf-72" value="" style="edgeStyle=orthogonalEdgeStyle;rounded=0;orthogonalLoop=1;jettySize=auto;html=1;" parent="WIyWlLk6GJQsqaUBKTNV-1" source="ViDhvt9mj5HyhVhJRqnf-69" target="ViDhvt9mj5HyhVhJRqnf-71" edge="1">
                    <mxGeometry relative="1" as="geometry"/>
                </mxCell>
                <mxCell id="ViDhvt9mj5HyhVhJRqnf-75" value="False" style="edgeLabel;html=1;align=center;verticalAlign=middle;resizable=0;points=[];" parent="ViDhvt9mj5HyhVhJRqnf-72" vertex="1" connectable="0">
                    <mxGeometry x="-0.21" y="1" relative="1" as="geometry">
                        <mxPoint as="offset"/>
                    </mxGeometry>
                </mxCell>
                <mxCell id="ViDhvt9mj5HyhVhJRqnf-78" value="" style="edgeStyle=orthogonalEdgeStyle;rounded=0;orthogonalLoop=1;jettySize=auto;html=1;" parent="WIyWlLk6GJQsqaUBKTNV-1" source="ViDhvt9mj5HyhVhJRqnf-69" target="ViDhvt9mj5HyhVhJRqnf-76" edge="1">
                    <mxGeometry relative="1" as="geometry"/>
                </mxCell>
                <mxCell id="ViDhvt9mj5HyhVhJRqnf-80" value="True" style="edgeLabel;html=1;align=center;verticalAlign=middle;resizable=0;points=[];" parent="ViDhvt9mj5HyhVhJRqnf-78" vertex="1" connectable="0">
                    <mxGeometry x="-0.2457" relative="1" as="geometry">
                        <mxPoint as="offset"/>
                    </mxGeometry>
                </mxCell>
                <mxCell id="ViDhvt9mj5HyhVhJRqnf-69" value="option == quit" style="strokeWidth=2;html=1;shape=mxgraph.flowchart.decision;whiteSpace=wrap;" parent="WIyWlLk6GJQsqaUBKTNV-1" vertex="1">
                    <mxGeometry x="70" y="1240" width="100" height="100" as="geometry"/>
                </mxCell>
                <mxCell id="n05oCTqLYM93C7YEkfNj-15" style="edgeStyle=orthogonalEdgeStyle;rounded=0;orthogonalLoop=1;jettySize=auto;html=1;entryX=0;entryY=0.5;entryDx=0;entryDy=0;entryPerimeter=0;" edge="1" parent="WIyWlLk6GJQsqaUBKTNV-1" source="ViDhvt9mj5HyhVhJRqnf-71" target="n05oCTqLYM93C7YEkfNj-1">
                    <mxGeometry relative="1" as="geometry">
                        <mxPoint x="380" y="68" as="targetPoint"/>
                        <Array as="points">
                            <mxPoint x="380" y="1460"/>
                            <mxPoint x="380" y="70"/>
                        </Array>
                    </mxGeometry>
                </mxCell>
                <mxCell id="n05oCTqLYM93C7YEkfNj-16" value="True&lt;br&gt;" style="edgeLabel;html=1;align=center;verticalAlign=middle;resizable=0;points=[];" connectable="0" vertex="1" parent="n05oCTqLYM93C7YEkfNj-15">
                    <mxGeometry x="-0.9467" y="3" relative="1" as="geometry">
                        <mxPoint as="offset"/>
                    </mxGeometry>
                </mxCell>
                <mxCell id="n05oCTqLYM93C7YEkfNj-23" value="" style="edgeStyle=orthogonalEdgeStyle;rounded=0;orthogonalLoop=1;jettySize=auto;html=1;" edge="1" parent="WIyWlLk6GJQsqaUBKTNV-1" source="ViDhvt9mj5HyhVhJRqnf-71" target="n05oCTqLYM93C7YEkfNj-20">
                    <mxGeometry relative="1" as="geometry"/>
                </mxCell>
                <mxCell id="n05oCTqLYM93C7YEkfNj-24" value="False&lt;br&gt;" style="edgeLabel;html=1;align=center;verticalAlign=middle;resizable=0;points=[];" connectable="0" vertex="1" parent="n05oCTqLYM93C7YEkfNj-23">
                    <mxGeometry x="-0.2375" y="-2" relative="1" as="geometry">
                        <mxPoint as="offset"/>
                    </mxGeometry>
                </mxCell>
                <mxCell id="ViDhvt9mj5HyhVhJRqnf-71" value="option == continue" style="strokeWidth=2;html=1;shape=mxgraph.flowchart.decision;whiteSpace=wrap;" parent="WIyWlLk6GJQsqaUBKTNV-1" vertex="1">
                    <mxGeometry x="70" y="1410" width="100" height="100" as="geometry"/>
                </mxCell>
                <mxCell id="ViDhvt9mj5HyhVhJRqnf-79" value="" style="edgeStyle=orthogonalEdgeStyle;rounded=0;orthogonalLoop=1;jettySize=auto;html=1;" parent="WIyWlLk6GJQsqaUBKTNV-1" source="ViDhvt9mj5HyhVhJRqnf-76" target="ViDhvt9mj5HyhVhJRqnf-77" edge="1">
                    <mxGeometry relative="1" as="geometry"/>
                </mxCell>
                <mxCell id="ViDhvt9mj5HyhVhJRqnf-76" value="Saving and quitting" style="strokeWidth=2;html=1;shape=mxgraph.flowchart.display;whiteSpace=wrap;" parent="WIyWlLk6GJQsqaUBKTNV-1" vertex="1">
                    <mxGeometry x="240" y="1260" width="100" height="60" as="geometry"/>
                </mxCell>
                <mxCell id="ViDhvt9mj5HyhVhJRqnf-77" value="END" style="strokeWidth=2;html=1;shape=mxgraph.flowchart.terminator;whiteSpace=wrap;" parent="WIyWlLk6GJQsqaUBKTNV-1" vertex="1">
                    <mxGeometry x="240" y="1370" width="100" height="60" as="geometry"/>
                </mxCell>
                <mxCell id="n05oCTqLYM93C7YEkfNj-0" value="" style="edgeStyle=orthogonalEdgeStyle;rounded=0;orthogonalLoop=1;jettySize=auto;html=1;" edge="1" parent="WIyWlLk6GJQsqaUBKTNV-1" source="n05oCTqLYM93C7YEkfNj-1" target="n05oCTqLYM93C7YEkfNj-3">
                    <mxGeometry relative="1" as="geometry"/>
                </mxCell>
                <mxCell id="n05oCTqLYM93C7YEkfNj-1" value="input second whole number from 0 to 100" style="strokeWidth=2;html=1;shape=mxgraph.flowchart.display;whiteSpace=wrap;" vertex="1" parent="WIyWlLk6GJQsqaUBKTNV-1">
                    <mxGeometry x="470" y="40" width="100" height="60" as="geometry"/>
                </mxCell>
                <mxCell id="n05oCTqLYM93C7YEkfNj-2" value="" style="edgeStyle=orthogonalEdgeStyle;rounded=0;orthogonalLoop=1;jettySize=auto;html=1;" edge="1" parent="WIyWlLk6GJQsqaUBKTNV-1" source="n05oCTqLYM93C7YEkfNj-3" target="n05oCTqLYM93C7YEkfNj-8">
                    <mxGeometry relative="1" as="geometry"/>
                </mxCell>
                <mxCell id="n05oCTqLYM93C7YEkfNj-3" value="y" style="shape=parallelogram;html=1;strokeWidth=2;perimeter=parallelogramPerimeter;whiteSpace=wrap;rounded=1;arcSize=12;size=0.23;" vertex="1" parent="WIyWlLk6GJQsqaUBKTNV-1">
                    <mxGeometry x="470" y="130" width="100" height="60" as="geometry"/>
                </mxCell>
                <mxCell id="n05oCTqLYM93C7YEkfNj-4" style="edgeStyle=orthogonalEdgeStyle;rounded=0;orthogonalLoop=1;jettySize=auto;html=1;entryX=0.5;entryY=1;entryDx=0;entryDy=0;entryPerimeter=0;" edge="1" parent="WIyWlLk6GJQsqaUBKTNV-1" source="n05oCTqLYM93C7YEkfNj-8" target="n05oCTqLYM93C7YEkfNj-9">
                    <mxGeometry relative="1" as="geometry"/>
                </mxCell>
                <mxCell id="n05oCTqLYM93C7YEkfNj-5" value="False" style="edgeLabel;html=1;align=center;verticalAlign=middle;resizable=0;points=[];" connectable="0" vertex="1" parent="n05oCTqLYM93C7YEkfNj-4">
                    <mxGeometry x="-0.264" y="2" relative="1" as="geometry">
                        <mxPoint as="offset"/>
                    </mxGeometry>
                </mxCell>
                <mxCell id="n05oCTqLYM93C7YEkfNj-6" value="" style="edgeStyle=orthogonalEdgeStyle;rounded=0;orthogonalLoop=1;jettySize=auto;html=1;" edge="1" parent="WIyWlLk6GJQsqaUBKTNV-1" source="n05oCTqLYM93C7YEkfNj-8" target="n05oCTqLYM93C7YEkfNj-11">
                    <mxGeometry relative="1" as="geometry"/>
                </mxCell>
                <mxCell id="n05oCTqLYM93C7YEkfNj-7" value="True" style="edgeLabel;html=1;align=center;verticalAlign=middle;resizable=0;points=[];" connectable="0" vertex="1" parent="n05oCTqLYM93C7YEkfNj-6">
                    <mxGeometry x="-0.272" y="1" relative="1" as="geometry">
                        <mxPoint as="offset"/>
                    </mxGeometry>
                </mxCell>
                <mxCell id="n05oCTqLYM93C7YEkfNj-8" value="y == n; n E Z AND n &amp;gt;= 0 AND n &amp;lt;= 100&amp;nbsp;&amp;nbsp;" style="strokeWidth=2;html=1;shape=mxgraph.flowchart.decision;whiteSpace=wrap;" vertex="1" parent="WIyWlLk6GJQsqaUBKTNV-1">
                    <mxGeometry x="470" y="240" width="100" height="100" as="geometry"/>
                </mxCell>
                <mxCell id="n05oCTqLYM93C7YEkfNj-9" value="inputError" style="strokeWidth=2;html=1;shape=mxgraph.flowchart.display;whiteSpace=wrap;" vertex="1" parent="WIyWlLk6GJQsqaUBKTNV-1">
                    <mxGeometry x="630" y="140" width="100" height="60" as="geometry"/>
                </mxCell>
                <mxCell id="n05oCTqLYM93C7YEkfNj-10" value="" style="edgeStyle=orthogonalEdgeStyle;rounded=0;orthogonalLoop=1;jettySize=auto;html=1;" edge="1" parent="WIyWlLk6GJQsqaUBKTNV-1" source="n05oCTqLYM93C7YEkfNj-11" target="n05oCTqLYM93C7YEkfNj-13">
                    <mxGeometry relative="1" as="geometry"/>
                </mxCell>
                <mxCell id="n05oCTqLYM93C7YEkfNj-11" value="Your input y" style="strokeWidth=2;html=1;shape=mxgraph.flowchart.display;whiteSpace=wrap;" vertex="1" parent="WIyWlLk6GJQsqaUBKTNV-1">
                    <mxGeometry x="470" y="400" width="100" height="60" as="geometry"/>
                </mxCell>
                <mxCell id="n05oCTqLYM93C7YEkfNj-12" value="" style="edgeStyle=orthogonalEdgeStyle;rounded=0;orthogonalLoop=1;jettySize=auto;html=1;" edge="1" parent="WIyWlLk6GJQsqaUBKTNV-1" source="n05oCTqLYM93C7YEkfNj-13" target="n05oCTqLYM93C7YEkfNj-14">
                    <mxGeometry relative="1" as="geometry"/>
                </mxCell>
                <mxCell id="n05oCTqLYM93C7YEkfNj-13" value="MENU:&lt;br&gt;continue&lt;br&gt;edit&lt;br&gt;quit" style="strokeWidth=2;html=1;shape=mxgraph.flowchart.display;whiteSpace=wrap;" vertex="1" parent="WIyWlLk6GJQsqaUBKTNV-1">
                    <mxGeometry x="470" y="510" width="100" height="60" as="geometry"/>
                </mxCell>
                <mxCell id="n05oCTqLYM93C7YEkfNj-44" value="" style="edgeStyle=orthogonalEdgeStyle;rounded=0;orthogonalLoop=1;jettySize=auto;html=1;" edge="1" parent="WIyWlLk6GJQsqaUBKTNV-1" source="n05oCTqLYM93C7YEkfNj-14" target="n05oCTqLYM93C7YEkfNj-30">
                    <mxGeometry relative="1" as="geometry"/>
                </mxCell>
                <mxCell id="n05oCTqLYM93C7YEkfNj-14" value="option" style="shape=parallelogram;html=1;strokeWidth=2;perimeter=parallelogramPerimeter;whiteSpace=wrap;rounded=1;arcSize=12;size=0.23;" vertex="1" parent="WIyWlLk6GJQsqaUBKTNV-1">
                    <mxGeometry x="470" y="610" width="100" height="60" as="geometry"/>
                </mxCell>
                <mxCell id="n05oCTqLYM93C7YEkfNj-25" style="edgeStyle=orthogonalEdgeStyle;rounded=0;orthogonalLoop=1;jettySize=auto;html=1;exitX=1;exitY=0.5;exitDx=0;exitDy=0;exitPerimeter=0;" edge="1" parent="WIyWlLk6GJQsqaUBKTNV-1" source="n05oCTqLYM93C7YEkfNj-20">
                    <mxGeometry relative="1" as="geometry">
                        <mxPoint x="120" y="839" as="targetPoint"/>
                        <Array as="points">
                            <mxPoint x="350" y="1620"/>
                        </Array>
                    </mxGeometry>
                </mxCell>
                <mxCell id="n05oCTqLYM93C7YEkfNj-20" value="inputError" style="strokeWidth=2;html=1;shape=mxgraph.flowchart.display;whiteSpace=wrap;" vertex="1" parent="WIyWlLk6GJQsqaUBKTNV-1">
                    <mxGeometry x="70" y="1590" width="100" height="60" as="geometry"/>
                </mxCell>
                <object label="" id="n05oCTqLYM93C7YEkfNj-28">
                    <mxCell style="edgeStyle=orthogonalEdgeStyle;rounded=0;orthogonalLoop=1;jettySize=auto;html=1;" edge="1" parent="WIyWlLk6GJQsqaUBKTNV-1" source="n05oCTqLYM93C7YEkfNj-30" target="n05oCTqLYM93C7YEkfNj-35">
                        <mxGeometry relative="1" as="geometry">
                            <Array as="points">
                                <mxPoint x="520" y="830.5"/>
                                <mxPoint x="520" y="830.5"/>
                            </Array>
                        </mxGeometry>
                    </mxCell>
                </object>
                <mxCell id="n05oCTqLYM93C7YEkfNj-29" value="False" style="edgeLabel;html=1;align=center;verticalAlign=middle;resizable=0;points=[];" connectable="0" vertex="1" parent="n05oCTqLYM93C7YEkfNj-28">
                    <mxGeometry x="-0.2958" y="-4" relative="1" as="geometry">
                        <mxPoint as="offset"/>
                    </mxGeometry>
                </mxCell>
                <mxCell id="n05oCTqLYM93C7YEkfNj-30" value="option == edit" style="strokeWidth=2;html=1;shape=mxgraph.flowchart.decision;whiteSpace=wrap;" vertex="1" parent="WIyWlLk6GJQsqaUBKTNV-1">
                    <mxGeometry x="470" y="709.5" width="100" height="100" as="geometry"/>
                </mxCell>
                <mxCell id="n05oCTqLYM93C7YEkfNj-31" value="" style="edgeStyle=orthogonalEdgeStyle;rounded=0;orthogonalLoop=1;jettySize=auto;html=1;" edge="1" parent="WIyWlLk6GJQsqaUBKTNV-1" source="n05oCTqLYM93C7YEkfNj-35" target="n05oCTqLYM93C7YEkfNj-39">
                    <mxGeometry relative="1" as="geometry"/>
                </mxCell>
                <mxCell id="n05oCTqLYM93C7YEkfNj-32" value="False" style="edgeLabel;html=1;align=center;verticalAlign=middle;resizable=0;points=[];" connectable="0" vertex="1" parent="n05oCTqLYM93C7YEkfNj-31">
                    <mxGeometry x="-0.21" y="1" relative="1" as="geometry">
                        <mxPoint as="offset"/>
                    </mxGeometry>
                </mxCell>
                <mxCell id="n05oCTqLYM93C7YEkfNj-33" value="" style="edgeStyle=orthogonalEdgeStyle;rounded=0;orthogonalLoop=1;jettySize=auto;html=1;" edge="1" parent="WIyWlLk6GJQsqaUBKTNV-1" source="n05oCTqLYM93C7YEkfNj-35" target="n05oCTqLYM93C7YEkfNj-41">
                    <mxGeometry relative="1" as="geometry"/>
                </mxCell>
                <mxCell id="n05oCTqLYM93C7YEkfNj-34" value="True" style="edgeLabel;html=1;align=center;verticalAlign=middle;resizable=0;points=[];" connectable="0" vertex="1" parent="n05oCTqLYM93C7YEkfNj-33">
                    <mxGeometry x="-0.2457" relative="1" as="geometry">
                        <mxPoint as="offset"/>
                    </mxGeometry>
                </mxCell>
                <mxCell id="n05oCTqLYM93C7YEkfNj-35" value="option == quit" style="strokeWidth=2;html=1;shape=mxgraph.flowchart.decision;whiteSpace=wrap;" vertex="1" parent="WIyWlLk6GJQsqaUBKTNV-1">
                    <mxGeometry x="470" y="880.5" width="100" height="100" as="geometry"/>
                </mxCell>
                <mxCell id="n05oCTqLYM93C7YEkfNj-37" value="" style="edgeStyle=orthogonalEdgeStyle;rounded=0;orthogonalLoop=1;jettySize=auto;html=1;" edge="1" parent="WIyWlLk6GJQsqaUBKTNV-1" source="n05oCTqLYM93C7YEkfNj-39" target="n05oCTqLYM93C7YEkfNj-43">
                    <mxGeometry relative="1" as="geometry"/>
                </mxCell>
                <mxCell id="n05oCTqLYM93C7YEkfNj-38" value="False&lt;br&gt;" style="edgeLabel;html=1;align=center;verticalAlign=middle;resizable=0;points=[];" connectable="0" vertex="1" parent="n05oCTqLYM93C7YEkfNj-37">
                    <mxGeometry x="-0.2375" y="-2" relative="1" as="geometry">
                        <mxPoint as="offset"/>
                    </mxGeometry>
                </mxCell>
                <mxCell id="1" style="edgeStyle=none;html=1;exitX=1;exitY=0.5;exitDx=0;exitDy=0;exitPerimeter=0;" edge="1" parent="WIyWlLk6GJQsqaUBKTNV-1" source="n05oCTqLYM93C7YEkfNj-39">
                    <mxGeometry relative="1" as="geometry">
                        <mxPoint x="670" y="1210" as="targetPoint"/>
                        <Array as="points">
                            <mxPoint x="670" y="1100"/>
                            <mxPoint x="670" y="1130"/>
                        </Array>
                    </mxGeometry>
                </mxCell>
                <mxCell id="n05oCTqLYM93C7YEkfNj-39" value="option == continue" style="strokeWidth=2;html=1;shape=mxgraph.flowchart.decision;whiteSpace=wrap;" vertex="1" parent="WIyWlLk6GJQsqaUBKTNV-1">
                    <mxGeometry x="470" y="1050.5" width="100" height="100" as="geometry"/>
                </mxCell>
                <mxCell id="n05oCTqLYM93C7YEkfNj-40" value="" style="edgeStyle=orthogonalEdgeStyle;rounded=0;orthogonalLoop=1;jettySize=auto;html=1;" edge="1" parent="WIyWlLk6GJQsqaUBKTNV-1" source="n05oCTqLYM93C7YEkfNj-41" target="n05oCTqLYM93C7YEkfNj-42">
                    <mxGeometry relative="1" as="geometry"/>
                </mxCell>
                <mxCell id="n05oCTqLYM93C7YEkfNj-41" value="Saving and quitting" style="strokeWidth=2;html=1;shape=mxgraph.flowchart.display;whiteSpace=wrap;" vertex="1" parent="WIyWlLk6GJQsqaUBKTNV-1">
                    <mxGeometry x="640" y="900.5" width="100" height="60" as="geometry"/>
                </mxCell>
                <mxCell id="n05oCTqLYM93C7YEkfNj-42" value="END" style="strokeWidth=2;html=1;shape=mxgraph.flowchart.terminator;whiteSpace=wrap;" vertex="1" parent="WIyWlLk6GJQsqaUBKTNV-1">
                    <mxGeometry x="640" y="1010.5" width="100" height="60" as="geometry"/>
                </mxCell>
                <mxCell id="n05oCTqLYM93C7YEkfNj-45" style="edgeStyle=orthogonalEdgeStyle;rounded=0;orthogonalLoop=1;jettySize=auto;html=1;exitX=0;exitY=0.5;exitDx=0;exitDy=0;exitPerimeter=0;" edge="1" parent="WIyWlLk6GJQsqaUBKTNV-1" source="n05oCTqLYM93C7YEkfNj-43">
                    <mxGeometry relative="1" as="geometry">
                        <mxPoint x="520" y="480" as="targetPoint"/>
                        <Array as="points">
                            <mxPoint x="450" y="1261"/>
                        </Array>
                    </mxGeometry>
                </mxCell>
                <mxCell id="n05oCTqLYM93C7YEkfNj-43" value="inputError" style="strokeWidth=2;html=1;shape=mxgraph.flowchart.display;whiteSpace=wrap;" vertex="1" parent="WIyWlLk6GJQsqaUBKTNV-1">
                    <mxGeometry x="470" y="1230.5" width="100" height="60" as="geometry"/>
                </mxCell>
                <mxCell id="5" value="" style="edgeStyle=none;html=1;" edge="1" parent="WIyWlLk6GJQsqaUBKTNV-1" source="0" target="2">
                    <mxGeometry relative="1" as="geometry"/>
                </mxCell>
                <mxCell id="6" value="False&lt;br&gt;" style="edgeLabel;html=1;align=center;verticalAlign=middle;resizable=0;points=[];" vertex="1" connectable="0" parent="5">
                    <mxGeometry x="-0.32" y="1" relative="1" as="geometry">
                        <mxPoint x="6" y="1" as="offset"/>
                    </mxGeometry>
                </mxCell>
                <mxCell id="8" value="" style="edgeStyle=none;html=1;" edge="1" parent="WIyWlLk6GJQsqaUBKTNV-1" source="0" target="7">
                    <mxGeometry relative="1" as="geometry"/>
                </mxCell>
                <mxCell id="11" value="True" style="edgeLabel;html=1;align=center;verticalAlign=middle;resizable=0;points=[];" vertex="1" connectable="0" parent="8">
                    <mxGeometry x="-0.4302" relative="1" as="geometry">
                        <mxPoint y="1" as="offset"/>
                    </mxGeometry>
                </mxCell>
                <mxCell id="0" value="x &amp;gt; y" style="strokeWidth=2;html=1;shape=mxgraph.flowchart.decision;whiteSpace=wrap;" vertex="1" parent="WIyWlLk6GJQsqaUBKTNV-1">
                    <mxGeometry x="620" y="1210.5" width="100" height="100" as="geometry"/>
                </mxCell>
                <mxCell id="10" value="" style="edgeStyle=none;html=1;" edge="1" parent="WIyWlLk6GJQsqaUBKTNV-1" source="2" target="9">
                    <mxGeometry relative="1" as="geometry"/>
                </mxCell>
                <mxCell id="12" value="True" style="edgeLabel;html=1;align=center;verticalAlign=middle;resizable=0;points=[];" vertex="1" connectable="0" parent="10">
                    <mxGeometry x="-0.3184" relative="1" as="geometry">
                        <mxPoint as="offset"/>
                    </mxGeometry>
                </mxCell>
                <mxCell id="2" value="x &amp;lt; y" style="strokeWidth=2;html=1;shape=mxgraph.flowchart.decision;whiteSpace=wrap;" vertex="1" parent="WIyWlLk6GJQsqaUBKTNV-1">
                    <mxGeometry x="800" y="1210.5" width="100" height="100" as="geometry"/>
                </mxCell>
                <mxCell id="14" value="" style="edgeStyle=none;html=1;" edge="1" parent="WIyWlLk6GJQsqaUBKTNV-1" source="7" target="13">
                    <mxGeometry relative="1" as="geometry"/>
                </mxCell>
                <mxCell id="7" value="The number x is greater than y" style="strokeWidth=2;html=1;shape=mxgraph.flowchart.display;whiteSpace=wrap;" vertex="1" parent="WIyWlLk6GJQsqaUBKTNV-1">
                    <mxGeometry x="620" y="1400" width="100" height="60" as="geometry"/>
                </mxCell>
                <mxCell id="15" style="edgeStyle=none;html=1;exitX=0.5;exitY=1;exitDx=0;exitDy=0;exitPerimeter=0;entryX=1;entryY=0.5;entryDx=0;entryDy=0;entryPerimeter=0;" edge="1" parent="WIyWlLk6GJQsqaUBKTNV-1" source="9" target="13">
                    <mxGeometry relative="1" as="geometry">
                        <mxPoint x="850" y="1600" as="targetPoint"/>
                        <Array as="points">
                            <mxPoint x="850" y="1600"/>
                        </Array>
                    </mxGeometry>
                </mxCell>
                <mxCell id="9" value="The number y is greater than x" style="strokeWidth=2;html=1;shape=mxgraph.flowchart.display;whiteSpace=wrap;" vertex="1" parent="WIyWlLk6GJQsqaUBKTNV-1">
                    <mxGeometry x="800" y="1400" width="100" height="60" as="geometry"/>
                </mxCell>
                <mxCell id="17" value="" style="edgeStyle=none;html=1;" edge="1" parent="WIyWlLk6GJQsqaUBKTNV-1" source="13" target="16">
                    <mxGeometry relative="1" as="geometry"/>
                </mxCell>
                <mxCell id="13" value="quit or compare another pair of numbers" style="strokeWidth=2;html=1;shape=mxgraph.flowchart.display;whiteSpace=wrap;" vertex="1" parent="WIyWlLk6GJQsqaUBKTNV-1">
                    <mxGeometry x="620" y="1570" width="100" height="60" as="geometry"/>
                </mxCell>
                <mxCell id="20" value="" style="edgeStyle=none;html=1;" edge="1" parent="WIyWlLk6GJQsqaUBKTNV-1" source="16" target="18">
                    <mxGeometry relative="1" as="geometry"/>
                </mxCell>
                <mxCell id="16" value="option" style="shape=parallelogram;html=1;strokeWidth=2;perimeter=parallelogramPerimeter;whiteSpace=wrap;rounded=1;arcSize=12;size=0.23;" vertex="1" parent="WIyWlLk6GJQsqaUBKTNV-1">
                    <mxGeometry x="620" y="1700" width="100" height="60" as="geometry"/>
                </mxCell>
                <mxCell id="21" value="" style="edgeStyle=none;html=1;" edge="1" parent="WIyWlLk6GJQsqaUBKTNV-1" source="18" target="19">
                    <mxGeometry relative="1" as="geometry"/>
                </mxCell>
                <mxCell id="23" value="" style="edgeStyle=none;html=1;" edge="1" parent="WIyWlLk6GJQsqaUBKTNV-1" source="18" target="22">
                    <mxGeometry relative="1" as="geometry"/>
                </mxCell>
                <mxCell id="18" value="option == quit" style="strokeWidth=2;html=1;shape=mxgraph.flowchart.decision;whiteSpace=wrap;" vertex="1" parent="WIyWlLk6GJQsqaUBKTNV-1">
                    <mxGeometry x="620" y="1820" width="100" height="100" as="geometry"/>
                </mxCell>
                <mxCell id="25" style="edgeStyle=none;html=1;exitX=1;exitY=0.5;exitDx=0;exitDy=0;exitPerimeter=0;entryX=0.5;entryY=0;entryDx=0;entryDy=0;entryPerimeter=0;" edge="1" parent="WIyWlLk6GJQsqaUBKTNV-1" source="19" target="ViDhvt9mj5HyhVhJRqnf-44">
                    <mxGeometry relative="1" as="geometry">
                        <mxPoint x="110" y="20" as="targetPoint"/>
                        <Array as="points">
                            <mxPoint x="940" y="1870"/>
                            <mxPoint x="960" y="1870"/>
                            <mxPoint x="950" y="20"/>
                            <mxPoint x="120" y="20"/>
                        </Array>
                    </mxGeometry>
                </mxCell>
                <mxCell id="19" value="option == compare another" style="strokeWidth=2;html=1;shape=mxgraph.flowchart.decision;whiteSpace=wrap;" vertex="1" parent="WIyWlLk6GJQsqaUBKTNV-1">
                    <mxGeometry x="800" y="1820" width="100" height="100" as="geometry"/>
                </mxCell>
                <mxCell id="22" value="END&lt;br&gt;" style="strokeWidth=2;html=1;shape=mxgraph.flowchart.terminator;whiteSpace=wrap;" vertex="1" parent="WIyWlLk6GJQsqaUBKTNV-1">
                    <mxGeometry x="620" y="1980" width="100" height="60" as="geometry"/>
                </mxCell>
            </root>
        </mxGraphModel>
    </diagram>
</mxfile>